<?xml version="1.0" encoding="UTF-8" standalone="no"?>
<svg height="192" version="1.1" viewBox="0 0 192 192" width="192" xmlns:rdf="http://www.w3.org/1999/02/22-rdf-syntax-ns#" xmlns:svg="http://www.w3.org/2000/svg" xmlns="http://www.w3.org/2000/svg">
  <rect fill="black" height="192" width="192" x="0" y="0" />
  <path aria-label="R" d="m 42.83733,38.058667 v 6.826667 l 9.728,1.024 2.901334,2.389334 V 142.336 l -2.901334,2.38934 -9.728,0.85333 v 6.99733 h 40.618668 v -6.99733 l -9.728,-0.85333 -2.901334,-2.38934 v -40.61866 c 3.072,-0.17067 5.973334,-0.34134 8.533334,-0.34134 15.530667,0 22.186672,4.43734 26.794672,18.432 3.584,10.92267 4.26666,22.016 12.45866,29.184 3.92534,3.41334 9.55734,4.94934 17.23734,4.94934 3.92533,0 8.192,-0.512 13.312,-1.536 V 145.92 c -0.512,0 -1.024,0 -1.536,0 -12.97067,0 -18.432,-2.048 -22.18667,-12.11733 -3.072,-8.02133 -3.24267,-17.408 -8.02133,-25.25867 -3.41334,-5.632 -9.216,-9.215998 -17.578672,-11.434664 C 118.272,93.013336 127.488,83.456002 127.488,68.778668 c 0,-20.992 -13.48267,-30.720001 -41.130669,-30.720001 z m 27.989334,7.850667 h 8.192 c 21.162666,0 31.402666,6.485334 31.402666,24.234668 0,16.896 -9.728,23.552 -30.207999,23.552 -1.024,0 -4.096,0 -9.386667,-0.170666 z" fill="white" />
</svg>
