<?xml version="1.0" encoding="UTF-8" standalone="no"?>
<svg height="192" id="svg4733" version="1.1" viewBox="0 0 192 192" width="192" xmlns:svg="http://www.w3.org/2000/svg" xmlns="http://www.w3.org/2000/svg">
  <g transform="translate(0,-246.19997)">
    <rect height="192" id="rect4826" style="fill:black" width="192" x="0" y="246.19997" />
    <path d="m 42.837334,284.25863 v 6.82667 l 9.728,1.024 2.901334,2.38933 v 94.03734 l -2.901334,2.38933 -9.728,0.85334 v 6.99733 h 40.618668 v -6.99733 l -9.728001,-0.85334 -2.901333,-2.38933 V 347.9173 c 3.072,-0.17066 5.973334,-0.34133 8.533334,-0.34133 15.530667,0 22.186668,4.43733 26.794668,18.432 3.584,10.92267 4.26667,22.016 12.45867,29.184 3.92533,3.41333 9.55733,4.94933 17.23733,4.94933 3.92533,0 8.192,-0.512 13.312,-1.536 v -6.48533 c -0.512,0 -1.024,0 -1.536,0 -12.97067,0 -18.432,-2.048 -22.18667,-12.11733 -3.072,-8.02134 -3.24266,-17.408 -8.02133,-25.25867 -3.41333,-5.632 -9.216,-9.216 -17.578668,-11.43467 18.431998,-4.096 27.647998,-13.65333 27.647998,-28.33067 0,-20.992 -13.48266,-30.72 -41.130665,-30.72 z m 27.989334,7.85067 h 8.192 c 21.162672,0 31.402672,6.48533 31.402672,24.23467 0,16.896 -9.728,23.552 -30.208005,23.552 -1.024,0 -4.096,0 -9.386667,-0.17067 z" style="fill:white" />
  </g>
</svg>
